# xmcd
#
# Track frame offsets: 
#        300
#        17988
#        32515
#        60198
#        88236
#        117168
#        147685
#        167857
#        191169
#        209615
#
# Disc length: 3368 seconds
#
# Revision: 0
# Processed by: cddbd v1.4PL0 Copyright (c) Steve Scherf et al.
# Submitted via: ExactAudioCopy v0.90a11
#
DISCID=940d240a
DTITLE=Van Morrison - In All Your Revelation
DYEAR=1900
DGENRE=
TTITLE0=Moondance
TTITLE1=Checkinh It Out
TTITLE2=Moonshine Whisky
TTITLE3=Tupelo Honey
TTITLE4=Wavelength
TTITLE5=St Dominics Preview
TTITLE6=Don't Look Back
TTITLE7=I've Been Working
TTITLE8=Gloria
TTITLE9=Cyprus Avenue
EXTD=
EXTT0=
EXTT1=
EXTT2=
EXTT3=
EXTT4=
EXTT5=
EXTT6=
EXTT7=
EXTT8=
EXTT9=
PLAYORDER=
